<svg class="marks" width="450" height="240" version="1.1" xmlns="http://www.w3.org/2000/svg" xmlns:xlink="http://www.w3.org/1999/xlink"><g transform="translate(40,10)"><g class="mark-group"><g transform="translate(0,0)"><rect class="background" width="400" height="200" style="fill: none;"></rect><g class="mark-area"><path d="M0,144C6.709203013773991,138.56554555884307,45.515235640161265,94.7590719809637,66.66666666666666,89.99999999999999S116.12814424830526,123.29080210591516,133.33333333333331,114.00000000000001S183.2272456621464,27.560469972576538,200,17.999999999999993S249.89391232881303,28.439530027423437,266.66666666666663,37.999999999999986S313.2934539734071,87.38683981122433,333.33333333333337,94S389.2375909423565,83.93723363037583,400,82L400,200C388.8888888888889,200,355.5555555555556,200,333.33333333333337,200S288.88888888888886,200,266.66666666666663,200S222.22222222222223,200,200,200S155.55555555555554,200,133.33333333333331,200S88.88888888888887,200,66.66666666666666,200S11.111111111111109,200,0,200Z" style="fill: #1ea1e0; fill-opacity: 1;"></path></g><g class="mark-group"><g transform="translate(0,200)"><rect class="background" width="0" height="0" style="pointer-events: none; fill: none;"></rect><g class="mark-rule" style="pointer-events: none;"></g><g class="mark-rule" style="pointer-events: none;"><line transform="translate(0.5,0)" x2="0" y2="6" style="fill: none; stroke: #000; stroke-width: 1; opacity: 1;"></line><line transform="translate(67.16666666666666,0)" x2="0" y2="6" style="fill: none; stroke: #000; stroke-width: 1; opacity: 1;"></line><line transform="translate(133.83333333333331,0)" x2="0" y2="6" style="fill: none; stroke: #000; stroke-width: 1; opacity: 1;"></line><line transform="translate(200.5,0)" x2="0" y2="6" style="fill: none; stroke: #000; stroke-width: 1; opacity: 1;"></line><line transform="translate(267.16666666666663,0)" x2="0" y2="6" style="fill: none; stroke: #000; stroke-width: 1; opacity: 1;"></line><line transform="translate(333.83333333333337,0)" x2="0" y2="6" style="fill: none; stroke: #000; stroke-width: 1; opacity: 1;"></line><line transform="translate(400.5,0)" x2="0" y2="6" style="fill: none; stroke: #000; stroke-width: 1; opacity: 1;"></line></g><g class="mark-rule" style="pointer-events: none;"></g><g class="mark-text"><text text-anchor="middle" transform="translate(0.5,19)" style="font: 11px sans-serif; fill: #000; opacity: 1;">1</text><text text-anchor="middle" transform="translate(67.16666666666666,19)" style="font: 11px sans-serif; fill: #000; opacity: 1;">2</text><text text-anchor="middle" transform="translate(133.83333333333331,19)" style="font: 11px sans-serif; fill: #000; opacity: 1;">3</text><text text-anchor="middle" transform="translate(200.5,19)" style="font: 11px sans-serif; fill: #000; opacity: 1;">4</text><text text-anchor="middle" transform="translate(267.16666666666663,19)" style="font: 11px sans-serif; fill: #000; opacity: 1;">5</text><text text-anchor="middle" transform="translate(333.83333333333337,19)" style="font: 11px sans-serif; fill: #000; opacity: 1;">6</text><text text-anchor="middle" transform="translate(400.5,19)" style="font: 11px sans-serif; fill: #000; opacity: 1;">7</text></g><g class="mark-path" style="pointer-events: none;"><path transform="translate(0.5,0.5)" d="M0,6V0H400V6" style="fill: none; stroke: #000; stroke-width: 1;"></path></g><g class="mark-text"></g></g></g><g class="mark-group"><g transform="translate(0,0)"><rect class="background" width="0" height="0" style="pointer-events: none; fill: none;"></rect><g class="mark-rule" style="pointer-events: none;"></g><g class="mark-rule" style="pointer-events: none;"><line transform="translate(-6,200.5)" x2="6" y2="0" style="fill: none; stroke: #000; stroke-width: 1; opacity: 1;"></line><line transform="translate(-6,160.5)" x2="6" y2="0" style="fill: none; stroke: #000; stroke-width: 1; opacity: 1;"></line><line transform="translate(-6,120.5)" x2="6" y2="0" style="fill: none; stroke: #000; stroke-width: 1; opacity: 1;"></line><line transform="translate(-6,80.5)" x2="6" y2="0" style="fill: none; stroke: #000; stroke-width: 1; opacity: 1;"></line><line transform="translate(-6,40.49999999999999)" x2="6" y2="0" style="fill: none; stroke: #000; stroke-width: 1; opacity: 1;"></line><line transform="translate(-6,0.5)" x2="6" y2="0" style="fill: none; stroke: #000; stroke-width: 1; opacity: 1;"></line></g><g class="mark-rule" style="pointer-events: none;"></g><g class="mark-text"><text text-anchor="end" transform="translate(-9,203.5)" style="font: 11px sans-serif; fill: #000; opacity: 1;">0</text><text text-anchor="end" transform="translate(-9,163.5)" style="font: 11px sans-serif; fill: #000; opacity: 1;">20</text><text text-anchor="end" transform="translate(-9,123.5)" style="font: 11px sans-serif; fill: #000; opacity: 1;">40</text><text text-anchor="end" transform="translate(-9,83.5)" style="font: 11px sans-serif; fill: #000; opacity: 1;">60</text><text text-anchor="end" transform="translate(-9,43.49999999999999)" style="font: 11px sans-serif; fill: #000; opacity: 1;">80</text><text text-anchor="end" transform="translate(-9,3.5)" style="font: 11px sans-serif; fill: #000; opacity: 1;">100</text></g><g class="mark-path" style="pointer-events: none;"><path transform="translate(0.5,0.5)" d="M-6,0H0V200H-6" style="fill: none; stroke: #000; stroke-width: 1;"></path></g><g class="mark-text"></g></g></g></g></g></g></svg>